# AST/ASF file generated using VICON BodyLanguage
# -----------------------------------------------
:version 1.10
:name VICON
:units
  mass 1.0
  length 0.45
  angle deg
:documentation
   .ast/.asf automatically generated from VICON data using
   VICON BodyBuilder and BodyLanguage model FoxedUp or BRILLIANT.MOD
:root
   order TX TY TZ RX RY RZ
   axis XYZ
   position 0 0 0  
   orientation 0 0 0 
:bonedata
  begin
     id 1 
     name lhipjoint
     direction 0.662698 -0.695252 0.27831 
     length 2.53073 
     axis 0 0 0  XYZ
  end
  begin
     id 2 
     name lfemur
     direction 0.34202 -0.939693 0  
     length 7.16147  
     axis 0 0 20  XYZ
    dof rx ry rz
    limits (-160.0 20.0)
           (-70.0 70.0)
           (-60.0 70.0)
  end
  begin
     id 3 
     name ltibia
     direction 0.34202 -0.939693 0   
     length 7.63967   
     axis 0 0 20   XYZ
    dof rx
    limits (-10.0 170.0)
  end
  begin
     id 4 
     name lfoot
     direction 0.0938457 -0.257721 0.961651   
     length 1.89793   
     axis -90 7.62852e-016 20   XYZ
    dof rx rz
    limits (-45.0 90.0)
           (-70.0 20.0)
  end
  begin
     id 5 
     name ltoes
     direction -0.00116841 -0.0030592 0.999995   
     length 0.955649   
     axis -90 7.62852e-016 20   XYZ
    dof rx
    limits (-90.0 20.0)
  end
  begin
     id 6 
     name rhipjoint
     direction -0.649445 -0.705948 0.282592   
     length 2.49238  
     axis 0 0 0  XYZ 
  end
  begin
     id 7 
     name rfemur
     direction -0.34202 -0.939693 0   
     length 6.90728   
     axis 0 0 -20   XYZ
    dof rx ry rz
    limits (-160.0 20.0)
           (-70.0 70.0)
           (-70.0 60.0)
  end
  begin
     id 8 
     name rtibia
     direction -0.34202 -0.939693 0   
     length 7.72868   
     axis 0 0 -20   XYZ
    dof rx
    limits (-10.0 170.0)
 end
 begin
     id 9 
     name rfoot
     direction -0.0920068 -0.252865 0.963117   
     length 1.97476  
     axis -90 -7.62852e-016 -20   XYZ
    dof rx rz
    limits (-45.0 90.0)
           (-20.0 70.0)
  end
  begin
     id 10 
     name rtoes
     direction 0.000391322 0.00230649 0.999997   
     length 0.992641   
     axis -90 -7.62852e-016 -20   XYZ
    dof rx
    limits (-90.0 20.0)
  end
  begin
     id 11 
     name lowerback
     direction -0.00875327 0.998321 -0.0572635   
     length 2.20024   
     axis 0 0 0   XYZ
    dof rx ry rz
    limits (-20.0 45.0)
           (-30.0 30.0)
           (-30.0 30.0)
  end
  begin
     id 12 
     name upperback
     direction 0.00753931 0.999972 -0.000360425   
     length 2.20538   
     axis 0 0 0   XYZ
    dof rx ry rz
    limits (-20.0 45.0)
           (-30.0 30.0)
           (-30.0 30.0)
  end
  begin
     id 13 
     name thorax
     direction 0.0117767 0.999601 0.0256663   
     length 2.21508   
     axis 0 0 0   XYZ
    dof rx ry rz
    limits (-20.0 45.0)
           (-30.0 30.0)
           (-30.0 30.0)
  end
  begin
     id 14 
     name lowerneck
     direction 0.060228 0.994909 0.0807986   
     length 1.7607   
     axis 0 0 0   XYZ
    dof rx ry rz
    limits (-20.0 45.0)
           (-30.0 30.0)
           (-30.0 30.0)
  end
  begin
     id 15 
     name upperneck
     direction -0.0563647 0.959594 -0.275685   
     length 1.75612   
     axis 0 0 0   XYZ
    dof rx ry rz
    limits (-20.0 45.0)
           (-30.0 30.0)
           (-30.0 30.0)
  end
  begin
     id 16
     name head
     direction -0.0161544 0.99458 -0.102714  
     length 1.79288  
     axis 0 0 0   XYZ
    dof rx ry rz
    limits (-20.0 45.0)
           (-30.0 30.0)
           (-30.0 30.0)
  end
  begin
     id 17 
     name lclavicle
     direction 0.93913 0.332189 -0.087669  
     length 3.52087  
     axis 0 0 0   XYZ
    dof ry rz
    limits (-20.0 10.0)
           (0.0 20.0)
  end
  begin
     id 18 
     name lhumerus
     direction 1 -4.48974e-011 -2.70836e-027   
     length 5.35289   
     axis -180 -30 -90   XYZ
    dof rx ry rz
    limits (-60.0 90.0)
           (-90.0 90.0)
           (-90.0 90.0)
  end
  begin
     id 19
     name lradius
     direction 1 -4.48961e-011 -9.76021e-027   
     length 3.27727   
     axis -180 -30 -90   XYZ
    dof rx
    limits (-10.0 170.0)
  end
  begin
     id 20
     name lwrist
     direction 1 -4.49103e-011 -2.23668e-026   
     length 1.63864   
     axis 1.44924e-014 90 90   XYZ
    dof ry
    limits (-180.0 0.0)
 end
  begin
     id 21 
     name lhand
     direction 1 3.0697e-005 0.000161777   
     length 0.54443   
     axis 2.85318e-014 90 90   XYZ
    dof rx rz
    limits (-90.0 90.0)
           (-45.0 45.0)
  end
  begin
     id 22 
     name lfingers
     direction 1 -4.49027e-011 -8.9447e-026   
     length 0.438912   
     axis 5.70628e-014 90 90   XYZ
    dof rx
    limits (0.0 90.0)
  end
  begin
     id 23
     name lthumb
     direction 0.707058 2.6516e-005 0.707156   
     length 0.630274   
     axis -90 45 -3.53137e-014   XYZ
    dof rx rz
    limits (-45.0 45.0)
           (-45.0 45.0)
  end
  begin
     id 24 
     name rclavicle
     direction -0.95274 0.284984 -0.105215   
     length 3.43401  
     axis 0 0 0   XYZ 
    dof ry rz
    limits (-10.0 20.0)
           (-20.0 0.0)
  end
  begin
     id 25 
     name rhumerus
     direction -0.999999 -0.000575019 -0.00106829  
     length 5.52077   
     axis -180 30 90   XYZ
    dof rx ry rz
    limits (-90.0 60.0)
           (-90.0 90.0)
           (-90.0 90.0)
  end
  begin
     id 26 
     name rradius
     direction -1 -4.4879e-011 -6.35415e-027   
     length 3.32364   
     axis -180 30 90   XYZ
    dof rx
    limits (-10.0 170.0)
  end
  begin
     id 27 
     name rwrist
     direction -1 -4.49048e-011 -9.98542e-027   
     length 1.66182   
     axis 6.32482e-015 -90 -90   XYZ
    dof ry
    limits (-180.0 0.0)
  end
  begin
     id 28
     name rhand
     direction -1 -4.48978e-011 -1.99771e-026   
     length 0.732235   
     axis 1.27479e-014 -90 -90   XYZ
    dof rx rz
    limits (-90.0 90.0)
           (-45.0 45.0)
  end
  begin
     id 29
     name rfingers
     direction -1 -4.49144e-011 -3.99245e-026   
     length 0.590347   
     axis 2.5496e-014 -90 -90   XYZ
    dof rx
    limits (0.0 90.0)
  end
  begin
     id 30
     name rthumb
     direction -0.707107 -6.35121e-011 0.707107   
     length 0.847624   
     axis -90 -45 -2.82974e-014   XYZ
    dof rx rz
    limits (-45.0 45.0)
           (-45.0 45.0)
  end
:hierarchy
  begin
    root lhipjoint rhipjoint lowerback
    lhipjoint lfemur
    lfemur ltibia
    ltibia lfoot
    lfoot ltoes
    rhipjoint rfemur
    rfemur rtibia
    rtibia rfoot
    rfoot rtoes
    lowerback upperback
    upperback thorax
    thorax lowerneck lclavicle rclavicle
    lowerneck upperneck
    upperneck head
    lclavicle lhumerus
    lhumerus lradius
    lradius lwrist
    lwrist lhand lthumb
    lhand lfingers
    rclavicle rhumerus
    rhumerus rradius
    rradius rwrist
    rwrist rhand rthumb
    rhand rfingers
  end

#!OML:ASF G:\Work\Work\Patient Classification 1\Elijah\terrain1\Elijah.ASF
:FULLY-SPECIFIED
:DEGREES
3837
root 5.56629 20.7292 -31.2315 185.908 -42.907 -179.011
lowerback 6.17999 -1.073 3.27605
upperback 1.79238 -1.29302 2.07311
thorax -1.63826 -0.696289 0.393452
lowerneck -0.0506194 23.275 22.333
upperneck 24.4519 38.5205 -28.4539
head 22.5508 16.282 -7.17245
rclavicle -1.46306e-013 2.38542e-014
rhumerus -43.1247 -4.07385 -76.9634
rradius 37.4677
rwrist -5.6925
rhand -17.7958 21.9747
rfingers 7.12502
rthumb 8.46738 -7.83559
lclavicle -1.46306e-013 2.38542e-014
lhumerus -41.4423 -20.2536 96.4324
lradius 92.1672
lwrist 15.9896
lhand -15.2071 24.2127
lfingers 7.12502
lthumb 10.965 53.9064
rfemur -28.1616 11.74 16.7487
rtibia 35.4997
rfoot -19.4988 1.41253
rtoes -32.782
lfemur -26.7295 -12.5617 -23.1631
ltibia 49.4022
lfoot -7.21099 -20.7975
ltoes 4.75263
3838
root 5.53322 20.7229 -31.2884 185.752 -43.639 -179.021
lowerback 5.98018 -1.01644 3.57519
upperback 1.86266 -1.21544 2.08949
thorax -1.45835 -0.656624 0.232127
lowerneck -0.0243156 23.3073 22.1703
upperneck 24.6063 38.5421 -28.1459
head 22.3926 16.2935 -6.99235
rclavicle -5.68524e-014 -2.70347e-014
rhumerus -43.0525 -4.0719 -76.8292
rradius 37.0199
rwrist -5.45438
rhand -17.3074 21.8036
rfingers 7.12502
rthumb 8.93873 -7.98705
lclavicle -5.68524e-014 -2.70347e-014
lhumerus -40.9045 -19.6466 96.0998
lradius 89.949
lwrist 15.5365
lhand -15.6257 22.5571
lfingers 7.12502
lthumb 10.5613 52.2717
rfemur -27.3463 11.0508 17.0848
rtibia 34.9282
rfoot -19.1525 2.90937
rtoes -29.7193
lfemur -26.9819 -12.6681 -23.2868
ltibia 50.1905
lfoot -7.32098 -20.749
ltoes 1.2247
3839
root 5.50451 20.6988 -31.3507 185.653 -44.4511 -179.013
lowerback 5.72651 -0.895262 3.97373
upperback 1.9102 -1.04974 2.11718
thorax -1.26994 -0.572202 0.0208075
lowerneck -0.185085 23.2982 21.7209
upperneck 24.9099 38.4532 -27.6521
head 22.1238 16.2164 -6.73097
rclavicle -3.97569e-015 -2.06736e-014
rhumerus -42.9887 -4.24663 -76.6089
rradius 36.4625
rwrist -5.18757
rhand -17.1665 21.808
rfingers 7.12502
rthumb 9.07469 -7.97683
lclavicle -3.97569e-015 -2.06736e-014
lhumerus -40.3212 -19.1846 95.8656
lradius 87.5922
lwrist 14.8819
lhand -15.8426 20.6886
lfingers 7.12502
lthumb 10.352 50.4138
rfemur -26.648 10.5538 17.3801
rtibia 34.5182
rfoot -19.0434 3.63324
rtoes -24.9766
lfemur -27.0797 -12.9937 -23.22
ltibia 51.0203
lfoot -7.8289 -21.0813
ltoes -1.3276
3840
root 5.47606 20.688 -31.4135 185.561 -45.2385 -178.997
lowerback 5.42398 -0.761404 4.33757
upperback 1.97022 -0.875857 2.1721
thorax -1.03792 -0.482538 -0.142948
lowerneck -0.351054 23.2881 21.1983
upperneck 25.1993 38.3528 -27.1403
head 21.811 16.132 -6.45902
rclavicle -6.44062e-014 -8.74653e-015
rhumerus -42.9051 -4.21667 -76.4795
rradius 35.9359
rwrist -5.08154
rhand -17.4347 22.0447
rfingers 7.12502
rthumb 8.81592 -7.75112
lclavicle -6.44062e-014 -8.74653e-015
lhumerus -39.7189 -18.6639 95.6545
lradius 85.119
lwrist 14.1853
lhand -15.6994 18.8288
lfingers 7.12502
lthumb 10.4901 48.547
rfemur -25.9156 10.2529 17.65
rtibia 34.2159
rfoot -19.3483 2.72236
rtoes -22.6871
lfemur -27.4106 -13.1445 -23.2177
ltibia 51.9442
lfoot -6.91435 -20.9196
ltoes 0.100747
3841
root 5.44782 20.663 -31.4672 185.4 -45.9149 -178.989
lowerback 5.2508 -0.554323 4.78024
upperback 2.0434 -0.596936 2.18594
thorax -0.859142 -0.340244 -0.395766
lowerneck -0.535353 23.2363 20.6605
upperneck 25.517 38.1759 -26.5806
head 21.4736 16.0211 -6.20097
rclavicle 1.07344e-014 3.18055e-015
rhumerus -42.9263 -4.32791 -76.3102
rradius 35.5204
rwrist -4.90207
rhand -17.5632 22.2048
rfingers 7.12502
rthumb 8.69192 -7.59623
lclavicle 1.07344e-014 3.18055e-015
lhumerus -39.1536 -18.3239 95.5361
lradius 82.7084
lwrist 13.6543
lhand -16.0092 18.3416
lfingers 7.12502
lthumb 10.1912 48.0747
rfemur -25.1959 10.0786 17.8736
rtibia 34.1263
rfoot -19.823 0.548386
rtoes -23.7884
lfemur -27.6198 -13.3507 -23.2275
ltibia 52.8951
lfoot -6.60842 -20.8492
ltoes 0.0967343
3842
root 5.42167 20.6314 -31.5202 185.184 -46.5304 -178.988
lowerback 5.20245 -0.261821 5.29104
upperback 2.11988 -0.195386 2.17175
thorax -0.736095 -0.136775 -0.719556
lowerneck -0.860398 23.1441 19.9778
upperneck 25.9387 37.9037 -25.8662
head 21.0894 15.8518 -5.88983
rclavicle -7.95139e-016 7.15625e-015
rhumerus -43.031 -4.60155 -76.0796
rradius 35.1407
rwrist -4.68749
rhand -17.3346 22.1326
rfingers 7.12502
rthumb 8.9125 -7.65912
lclavicle -7.95139e-016 7.15625e-015
lhumerus -38.6031 -18.2003 95.5243
lradius 80.556
lwrist 13.2493
lhand -16.3626 19.1662
lfingers 7.12502
lthumb 9.85035 48.9158
rfemur -24.5276 10.1978 18.0282
rtibia 34.1752
rfoot -20.1679 -1.58324
rtoes -24.2435
lfemur -27.6887 -13.4024 -23.2652
ltibia 53.8634
lfoot -3.86812 -20.0367
ltoes 6.81125
